<svg width="16" height="17" viewBox="0 0 16 17" fill="none" xmlns="http://www.w3.org/2000/svg">
<path fill-rule="evenodd" clip-rule="evenodd" d="M7.99992 2.33136C4.31992 2.33136 1.33325 5.31803 1.33325 8.99803C1.33325 12.678 4.31992 15.6647 7.99992 15.6647C11.6799 15.6647 14.6666 12.678 14.6666 8.99803C14.6666 5.31803 11.6799 2.33136 7.99992 2.33136ZM7.99992 9.66469C7.63325 9.66469 7.33325 9.36469 7.33325 8.99803V6.33136C7.33325 5.96469 7.63325 5.66469 7.99992 5.66469C8.36659 5.66469 8.66659 5.96469 8.66659 6.33136V8.99803C8.66659 9.36469 8.36659 9.66469 7.99992 9.66469ZM7.33325 10.998V12.3314H8.66659V10.998H7.33325Z" fill="currentColor"/>
<g mask="url(#mask0)">
<rect y="0.998047" width="16" height="16" fill="currentColor"/>
</g>
</svg>
