<svg width="25" height="25" viewBox="0 0 25 25" fill="none" xmlns="http://www.w3.org/2000/svg">
<path d="M12.0508 24.4922C18.5898 24.4922 24.0039 19.0664 24.0039 12.5391C24.0039 6 18.5781 0.585938 12.0391 0.585938C5.51172 0.585938 0.0976562 6 0.0976562 12.5391C0.0976562 19.0664 5.52344 24.4922 12.0508 24.4922ZM12.0508 22.5C6.51953 22.5 2.10156 18.0703 2.10156 12.5391C2.10156 7.00781 6.50781 2.57812 12.0391 2.57812C17.5703 2.57812 22 7.00781 22.0117 12.5391C22.0234 18.0703 17.582 22.5 12.0508 22.5ZM6.02734 12.5273C6.02734 12.7969 6.14453 12.9961 6.35547 13.2188L10.3164 17.1914C10.4688 17.3438 10.6797 17.4375 10.9258 17.4375C11.4062 17.4375 11.7695 17.0508 11.7695 16.582C11.7695 16.3242 11.6758 16.1133 11.5117 15.9492L10.0469 14.5078L8.62891 13.3125L11.1133 13.4062H17.2188C17.7344 13.4062 18.0977 13.0312 18.0977 12.5273C18.0977 12.0234 17.7227 11.6484 17.2188 11.6484H11.1133L8.64062 11.7422L10.0469 10.5586L11.5117 9.10547C11.6641 8.95312 11.7695 8.74219 11.7695 8.48438C11.7695 8.00391 11.4062 7.64062 10.9258 7.64062C10.6797 7.64062 10.4688 7.72266 10.3164 7.875L6.35547 11.8477C6.12109 12.082 6.02734 12.2812 6.02734 12.5273Z" fill="#979797"/>
</svg>
