<svg width="41" height="29" viewBox="0 0 41 29" fill="none" xmlns="http://www.w3.org/2000/svg">
<circle cx="26.5" cy="14.5" r="10.5"/>
<path d="M26.0508 26.4922C32.5898 26.4922 38.0039 21.0664 38.0039 14.5391C38.0039 8 32.5781 2.58594 26.0391 2.58594C19.5117 2.58594 14.0977 8 14.0977 14.5391C14.0977 21.0664 19.5234 26.4922 26.0508 26.4922ZM26.0508 24.5C20.5195 24.5 16.1016 20.0703 16.1016 14.5391C16.1016 9.00781 20.5078 4.57812 26.0391 4.57812C31.5703 4.57812 36 9.00781 36.0117 14.5391C36.0234 20.0703 31.582 24.5 26.0508 24.5ZM20.0273 14.5273C20.0273 14.7969 20.1445 14.9961 20.3555 15.2188L24.3164 19.1914C24.4688 19.3438 24.6797 19.4375 24.9258 19.4375C25.4062 19.4375 25.7695 19.0508 25.7695 18.582C25.7695 18.3242 25.6758 18.1133 25.5117 17.9492L24.0469 16.5078L22.6289 15.3125L25.1133 15.4062H31.2188C31.7344 15.4062 32.0977 15.0312 32.0977 14.5273C32.0977 14.0234 31.7227 13.6484 31.2188 13.6484H25.1133L22.6406 13.7422L24.0469 12.5586L25.5117 11.1055C25.6641 10.9531 25.7695 10.7422 25.7695 10.4844C25.7695 10.0039 25.4062 9.64062 24.9258 9.64062C24.6797 9.64062 24.4688 9.72266 24.3164 9.875L20.3555 13.8477C20.1211 14.082 20.0273 14.2812 20.0273 14.5273Z" fill="currentColor"/>
</svg>
