<svg width="20" height="22" viewBox="0 0 20 22" fill="none" xmlns="http://www.w3.org/2000/svg">
<path d="M2.07031 17.3066H17.9297C19.0723 17.3066 19.8145 16.6133 19.8145 15.5977C19.8145 14.4551 18.9648 13.5566 18.0273 12.7656C17.2656 12.1113 17.1289 10.666 16.9043 9.04492C16.6211 5.80273 15.459 3.37109 13.0664 2.52148C12.6074 1.20312 11.4453 0.246094 10 0.246094C8.55469 0.246094 7.39258 1.20312 6.93359 2.52148C4.53125 3.37109 3.37891 5.80273 3.08594 9.04492C2.87109 10.666 2.73438 12.1113 1.96289 12.7656C1.03516 13.5566 0.185547 14.4551 0.185547 15.5977C0.185547 16.6133 0.917969 17.3066 2.07031 17.3066ZM10 21.5352C11.8555 21.5352 13.2227 20.2461 13.3398 18.7227H6.65039C6.77734 20.2461 8.13477 21.5352 10 21.5352Z" fill="currentColor"/>
</svg>
