<svg width="10" height="16" viewBox="0 0 10 16" fill="none" xmlns="http://www.w3.org/2000/svg">
<path d="M1.11719 15.3857C1.45215 15.3857 1.65039 15.1943 2.26562 14.5996L4.93848 11.9678C4.97266 11.9336 5.03418 11.9336 5.06152 11.9678L7.73438 14.5996C8.34961 15.1943 8.54785 15.3857 8.88281 15.3857C9.34082 15.3857 9.60742 15.085 9.60742 14.5518V2.68457C9.60742 1.38574 8.95801 0.722656 7.67285 0.722656H2.32715C1.04199 0.722656 0.392578 1.38574 0.392578 2.68457V14.5518C0.392578 15.085 0.65918 15.3857 1.11719 15.3857ZM1.67773 13.54C1.58203 13.6357 1.47266 13.6084 1.47266 13.4717V2.69824C1.47266 2.11035 1.78027 1.80273 2.38184 1.80273H7.625C8.21973 1.80273 8.52734 2.11035 8.52734 2.69824V13.4717C8.52734 13.6084 8.4248 13.6357 8.32227 13.54L5.3623 10.6689C5.14355 10.457 4.85645 10.457 4.6377 10.6689L1.67773 13.54Z" fill="currentColor"/>
</svg>
