<svg width="88" height="88" viewBox="0 0 88 88" fill="none" xmlns="http://www.w3.org/2000/svg">
<path d="M47.9531 17.542L17.1647 34.4482L44 49.1838L74.7885 32.2776L47.9531 17.542Z" fill="#FEA02C"/>
<path d="M18.059 69.7296L44.0188 83.9844V49.1831L18.059 34.9282V69.7296Z" fill="#FFC66C"/>
<path d="M75.7848 66.6358V33.7265L57.0625 59.0176L50.5312 55.8379L50.55 80.4926L75.7848 66.6358Z" fill="#FFB954"/>
<path d="M48.9844 46.9488L59.1566 57.1203L86.2812 42.2262L76.1091 32.0547L48.9844 46.9488Z" fill="#FEDA9B"/>
<path d="M6.30237 44.5177L33.6493 59.5339L44.0001 49.1831L16.6531 34.1669L6.30237 44.5177Z" fill="#FEDA9B"/>
<path d="M75.7848 31.7304L86.2122 21.3044L59.309 6.53125L48.8817 16.9586L75.7848 31.7304Z" fill="#FEDA9B"/>
<path d="M7.39062 19.0002L17.3191 28.928L44 14.2777L34.0715 4.34991L7.39062 19.0002Z" fill="#FEDA9B"/>
<path d="M78.2159 31.7304L87.4964 22.4498C87.8791 22.0678 88.0591 21.5273 87.9825 20.9923C87.9067 20.4572 87.5824 19.9885 87.1084 19.728L64.5048 7.31678C63.673 6.86024 65.6415 8.81867 65.1842 9.65052C64.7277 10.483 62.018 9.87342 62.8505 10.33L83.4466 21.6388L75.482 29.6028L46.8359 13.8729L54.7999 5.90888L62.8505 10.33C63.6824 10.7865 64.7277 10.483 65.1842 9.65052C65.6415 8.81867 65.3373 7.77332 64.5048 7.31678L55.3236 2.27467C54.6535 1.90675 53.821 2.02558 53.2812 2.56605L44 11.8473L34.7187 2.56605C34.1783 2.02558 33.3457 1.90742 32.6764 2.27467L0.891581 19.728C0.417582 19.9885 0.0933025 20.4565 0.0174357 20.9923C-0.0591023 21.5273 0.120829 22.0678 0.50352 22.4498L9.7841 31.7304L0.50352 41.0103C0.120829 41.393 -0.0591023 41.9328 0.0174357 42.4686C0.0933025 43.0037 0.417582 43.4723 0.891581 43.7321L10.4964 49.0065V66.6358C10.4964 67.2635 10.8382 67.8409 11.388 68.1431L43.1728 85.5958C43.4306 85.7374 43.7153 85.8079 44 85.8079C44.2846 85.8079 44.5693 85.7374 44.8271 85.5958L76.6119 68.1431C77.1618 67.8409 77.5035 67.2635 77.5035 66.6358V49.0065L87.1084 43.7328C87.5824 43.4723 87.9067 43.0037 87.9825 42.4686C88.0591 41.9335 87.8791 41.393 87.4964 41.011L78.2159 31.7304ZM44 47.222L15.7863 31.7297L44 16.2368L72.2137 31.7297L44 47.222ZM33.2007 5.90888L41.164 13.8729L12.518 29.6028L4.554 21.6388L33.2007 5.90888ZM12.5193 33.8574L41.1654 49.5873L33.2007 57.5519L4.554 41.822L12.5193 33.8574ZM74.066 65.6193L45.7187 81.1847V63.6152C45.7187 62.6659 44.9493 61.8965 44 61.8965C43.0506 61.8965 42.2812 62.6659 42.2812 63.6152V81.1847L13.9339 65.6193V50.8945L32.6764 61.1862C32.9362 61.3285 33.2209 61.3983 33.5028 61.3983C33.948 61.3983 34.3884 61.2251 34.7187 60.8948L44 51.6135L53.2812 60.8948C53.6115 61.2258 54.052 61.3983 54.4971 61.3983C54.7791 61.3983 55.0638 61.3285 55.3236 61.1862L74.066 50.8945V65.6193ZM54.7999 57.5519L46.8352 49.5866L75.4813 33.8574L83.4466 41.8214L54.7999 57.5519Z" fill="black"/>
<path d="M44 54.494C43.5482 54.494 43.1044 54.6773 42.7848 54.9975C42.4652 55.3185 42.2812 55.7602 42.2812 56.2127C42.2812 56.6659 42.4652 57.1077 42.7848 57.4293C43.1044 57.7489 43.5482 57.9315 44 57.9315C44.4518 57.9315 44.8956 57.7489 45.2152 57.4293C45.5348 57.1077 45.7188 56.6659 45.7188 56.2127C45.7188 55.7602 45.5348 55.3185 45.2152 54.9975C44.8956 54.6773 44.4518 54.494 44 54.494Z" fill="black"/>
</svg>
