<svg width="18" height="19" viewBox="0 0 18 19" fill="none" xmlns="http://www.w3.org/2000/svg">
<path d="M9 18.6191C13.9043 18.6191 17.9648 14.5498 17.9648 9.6543C17.9648 4.75 13.8955 0.689453 8.99121 0.689453C4.0957 0.689453 0.0351562 4.75 0.0351562 9.6543C0.0351562 14.5498 4.10449 18.6191 9 18.6191ZM9 17.125C4.85156 17.125 1.53809 13.8027 1.53809 9.6543C1.53809 5.50586 4.84277 2.18359 8.99121 2.18359C13.1396 2.18359 16.4619 5.50586 16.4707 9.6543C16.4795 13.8027 13.1484 17.125 9 17.125ZM4.89551 10.9375C5.59863 10.9375 6.16992 10.3574 6.16992 9.6543C6.16992 8.95117 5.58984 8.37109 4.89551 8.37109C4.18359 8.37109 3.6123 8.95117 3.6123 9.6543C3.6123 10.3574 4.18359 10.9375 4.89551 10.9375ZM8.99121 10.9375C9.69434 10.9375 10.2744 10.3574 10.2744 9.6543C10.2744 8.95117 9.69434 8.37109 8.99121 8.37109C8.28809 8.37109 7.70801 8.95117 7.70801 9.6543C7.70801 10.3574 8.28809 10.9375 8.99121 10.9375ZM13.0957 10.9375C13.7988 10.9375 14.3701 10.3574 14.3701 9.6543C14.3701 8.95117 13.7988 8.37109 13.0957 8.37109C12.3838 8.37109 11.8125 8.95117 11.8125 9.6543C11.8125 10.3574 12.3838 10.9375 13.0957 10.9375Z" fill="black"/>
</svg>
