<svg width="31" height="32" viewBox="0 0 31 32" fill="none" xmlns="http://www.w3.org/2000/svg">
<path d="M15.6 31.0945C17.1117 31.0945 18.3773 29.7762 18.3773 28.3699V18.6141H27.9574C29.4164 18.6141 30.682 17.3484 30.682 15.8367C30.682 14.325 29.4164 13.0594 27.9574 13.0594H18.3773V3.30351C18.3773 1.84453 17.1117 0.596481 15.6 0.596481C14.0883 0.596481 12.8227 1.84453 12.8227 3.30351V13.0594H3.22501C1.83633 13.0594 0.500397 14.325 0.500397 15.8367C0.500397 17.3484 1.83633 18.6141 3.22501 18.6141H12.8227V28.3699C12.8227 29.7762 14.0883 31.0945 15.6 31.0945Z" fill="currentColor"/>
</svg>
