<svg width="21" height="16" viewBox="0 0 21 16" fill="none" xmlns="http://www.w3.org/2000/svg">
<path d="M20.0605 7.91992C20.0605 7.51953 19.8848 7.09961 19.6113 6.83594L13.2734 0.498047C12.9609 0.185547 12.5898 0.0292969 12.2383 0.0292969C11.3691 0.0292969 10.793 0.625 10.793 1.41602C10.793 1.86523 10.9785 2.20703 11.252 2.4707L13.4785 4.69727L15.4902 6.5625L13.3906 6.44531H2.47266C1.55469 6.44531 0.939453 7.04102 0.939453 7.91992C0.939453 8.79883 1.55469 9.38477 2.47266 9.38477H13.3906L15.5 9.27734L13.4785 11.1328L11.252 13.3496C10.9883 13.623 10.793 13.9648 10.793 14.4043C10.793 15.1953 11.3691 15.8008 12.2383 15.8008C12.5898 15.8008 12.9512 15.6445 13.2637 15.3418L19.6113 8.99414C19.8848 8.73047 20.0605 8.31055 20.0605 7.91992Z" fill="currentColor"/>
</svg>
