<svg width="24" height="25" viewBox="0 0 24 25" fill="none" xmlns="http://www.w3.org/2000/svg">
<path d="M23.3529 10.5208L23.3513 10.5192L13.5612 0.729431C13.1439 0.311951 12.5891 0.0819702 11.9989 0.0819702C11.4088 0.0819702 10.854 0.311768 10.4365 0.729248L0.651514 10.514C0.648218 10.5173 0.644922 10.5208 0.641626 10.5241C-0.215307 11.386 -0.213843 12.7844 0.645838 13.644C1.0386 14.037 1.55734 14.2646 2.11196 14.2884C2.13448 14.2906 2.15719 14.2917 2.18008 14.2917H2.57028V21.4963C2.57028 22.922 3.73025 24.082 5.15627 24.082H8.98647C9.37466 24.082 9.6896 23.7672 9.6896 23.3788V17.7304C9.6896 17.0798 10.2188 15.9643 10.8693 15.9643H13.1285C13.7791 15.9643 14.3082 17.0798 14.3082 17.7304V23.3788C14.3082 23.7672 14.623 24.082 15.0114 24.082H18.8416C20.2676 24.082 21.4276 22.922 21.4276 21.4963V14.2917H21.7894C22.3794 14.2917 22.9342 14.0619 23.3518 13.6444C24.2124 12.7833 24.2128 11.3825 23.3529 10.5208Z" fill="currentColor"/>
</svg>
