<svg width="11" height="17" viewBox="0 0 11 17" fill="none" xmlns="http://www.w3.org/2000/svg">
<path d="M3.49805 1.9668C3.49805 3.02148 4.33789 3.86133 5.38281 3.86133C6.44727 3.86133 7.26758 3.02148 7.26758 1.9668C7.26758 0.902344 6.44727 0.0722656 5.38281 0.0722656C4.33789 0.0722656 3.49805 0.902344 3.49805 1.9668ZM0.851562 14.6816C0.861328 15.6094 1.49609 16.1855 2.50195 16.1855H8.49805C9.50391 16.1855 10.1387 15.6094 10.1484 14.6816C10.1582 13.7246 9.52344 13.1387 8.49805 13.1387H7.32617V7.10352C7.32617 6.15625 6.71094 5.58984 5.77344 5.58984H2.76562C1.74023 5.58984 1.10547 6.17578 1.11523 7.13281C1.125 8.06055 1.75977 8.63672 2.76562 8.63672H4.17188V13.1387H2.50195C1.47656 13.1387 0.841797 13.7246 0.851562 14.6816Z" fill="currentColor"/>
</svg>
