<svg width="15" height="21" viewBox="0 0 15 21" fill="none" xmlns="http://www.w3.org/2000/svg">
<path d="M2.61719 20.6367H12.3828C13.7988 20.6367 14.4922 19.9336 14.4922 18.4004V10.8516C14.4922 9.47461 13.916 8.76172 12.7539 8.64453V6.33984C12.7539 2.58008 10.166 0.744141 7.5 0.744141C4.83398 0.744141 2.24609 2.58008 2.24609 6.33984V8.66406C1.13281 8.81055 0.517578 9.51367 0.517578 10.8516V18.4004C0.517578 19.9336 1.21094 20.6367 2.61719 20.6367ZM4.67773 6.20312C4.67773 4.24023 5.9082 3.08789 7.5 3.08789C9.0918 3.08789 10.332 4.24023 10.332 6.20312V8.63477H4.67773V6.20312Z" fill="currentColor"/>
</svg>
