<svg width="45" height="36" viewBox="0 0 45 36" fill="none" xmlns="http://www.w3.org/2000/svg">
<path d="M6.78516 35.2012H38.2324C42.2578 35.2012 44.4902 32.9688 44.4902 28.9609V10.4336C44.4902 6.4082 42.2578 4.19336 38.2324 4.19336H34.1895C32.8184 4.19336 32.3262 4.01758 31.3594 3.10352L30.0059 1.75C29.0039 0.800781 28.0371 0.396484 26.2969 0.396484H18.6504C16.9102 0.396484 15.9434 0.800781 14.9414 1.75L13.5879 3.10352C12.6211 4.01758 12.1289 4.19336 10.7754 4.19336H6.78516C2.74219 4.19336 0.509766 6.4082 0.509766 10.4336V28.9609C0.509766 32.9688 2.74219 35.2012 6.78516 35.2012ZM22.5 29.084C17.3496 29.084 13.2188 24.9531 13.2188 19.7852C13.2188 14.5996 17.3496 10.4688 22.5 10.4688C27.668 10.4688 31.7988 14.5996 31.7988 19.7852C31.7988 24.9531 27.668 29.084 22.5 29.084ZM32.8359 13.334C32.8359 11.998 33.9785 10.8555 35.3496 10.8555C36.6855 10.8555 37.8281 11.998 37.8281 13.334C37.8281 14.7227 36.6855 15.7949 35.3496 15.8125C33.9609 15.8301 32.8359 14.7227 32.8359 13.334ZM22.5 24.9883C25.3828 24.9883 27.7031 22.668 27.7031 19.7852C27.7031 16.8848 25.3828 14.5645 22.5 14.5645C19.6348 14.5645 17.3145 16.8848 17.3145 19.7852C17.3145 22.668 19.6348 24.9883 22.5 24.9883Z" fill="black"/>
</svg>
