<svg width="13" height="20" viewBox="0 0 13 20" fill="none" xmlns="http://www.w3.org/2000/svg">
<path d="M5.93359 13.748C6.77344 13.748 7.31055 13.3086 7.45703 12.5469C7.4668 12.4785 7.47656 12.3809 7.48633 12.3125C7.61328 11.3164 8.04297 10.8672 9.67383 9.85156C11.4609 8.73828 12.3984 7.46875 12.3984 5.62305C12.3984 2.5957 9.92773 0.75 6.43164 0.75C3.84375 0.75 1.79297 1.81445 0.943359 3.50391C0.699219 3.97266 0.591797 4.45117 0.591797 4.91016C0.582031 5.81836 1.1875 6.43359 2.16406 6.43359C2.89648 6.43359 3.49219 6.0625 3.77539 5.4082C4.21484 4.11914 5.09375 3.5918 6.26562 3.5918C7.66211 3.5918 8.74609 4.43164 8.74609 5.68164C8.74609 6.88281 8.11133 7.48828 6.58789 8.44531C5.20117 9.33398 4.2832 10.3105 4.2832 11.7949V12.1367C4.2832 13.1035 4.92773 13.748 5.93359 13.748ZM5.97266 19.373C7.0957 19.373 8.00391 18.5137 8.00391 17.4297C8.00391 16.3457 7.0957 15.4766 5.97266 15.4766C4.84961 15.4766 3.94141 16.3457 3.94141 17.4297C3.94141 18.5137 4.84961 19.373 5.97266 19.373Z" fill="currentColor"/>
</svg>
