<svg width="82" height="94" viewBox="0 0 82 94" fill="none" xmlns="http://www.w3.org/2000/svg">
<path d="M36.8641 83.694C35.9553 76.5118 38.7394 73.2386 36.7713 66.1997C36.363 64.826 34.6736 65.6132 34.191 66.5045C33.5638 67.7328 32.4871 68.2421 31.1247 69.3024C29.0969 66.2276 27.787 65.149 25.7187 62.0625C23.7466 59.2171 22.979 55.8908 22.9099 52.5653C23.9208 53 25.0041 53.2659 26.1357 53.6527C34.923 55.7328 58.6475 49.7536 55.2159 36.5927C53.3444 29.0964 41.7162 26.1941 35.1884 28.3812C26.5651 31.2653 21.4771 39.1651 20.0005 47.7189C16.9201 45.5954 14.563 42.4845 12.8327 38.844C9.34775 31.1534 12.3165 23.5409 18.2453 18.0998C29.0904 8.18107 48.1887 5.30637 58.6049 17.0759C59.0861 17.5824 60.0496 17.1977 59.7613 16.4745C52.6489 -0.666115 26.0331 7.16618 15.839 16.2664C4.19888 26.6425 7.79511 44.0692 19.8291 51.1408C19.8042 52.1289 19.7068 53.2855 19.8503 54.346C20.2047 61.889 24.3444 64.1566 27.6137 70.2566C25.9186 70.8927 24.9054 71.8191 23.5282 71.607C22.2568 71.0769 20.0907 72.0349 21.1974 73.4094C25.7193 79.149 27.3019 81.3266 33.487 85.2843C34.5461 85.8398 37.1517 85.1163 36.8641 83.694ZM23.1779 49.3846C23.4444 47.6016 23.8313 45.7704 24.4348 44.1322C28.1049 33.026 40.6324 26.627 50.5463 34.6849C55.1182 38.4484 50.3215 43.5769 46.9722 46.0322C42.1289 49.6426 35.5294 51.2995 29.5577 51.0291C27.1981 50.7137 25.1518 50.1335 23.1779 49.3846ZM31.58 72.0962C31.628 72.2167 33.3665 70.8069 33.487 70.7588C34.6677 69.8682 35.2805 69.6523 34.8846 72.0962C34.191 76.3782 33.8048 77.3324 34.191 81.8915C32.1097 81.2554 28.3793 77.8748 25.5411 74.2576C27.0244 73.4094 27.4481 73.4094 28.9314 73.0914C29.7789 72.9096 30.6265 72.8793 31.58 72.0962Z" fill="black"/>
</svg>
