<svg width="13" height="14" viewBox="0 0 13 14" fill="none" xmlns="http://www.w3.org/2000/svg">
<path d="M5.31738 11.084C6.45898 11.084 7.51172 10.7148 8.37305 10.0996L11.6133 13.3398C11.7637 13.4902 11.9619 13.5654 12.1738 13.5654C12.6182 13.5654 12.9326 13.2236 12.9326 12.7861C12.9326 12.5811 12.8643 12.3828 12.7139 12.2393L9.49414 9.0127C10.1709 8.12402 10.5742 7.02344 10.5742 5.82715C10.5742 2.93555 8.20898 0.570312 5.31738 0.570312C2.43262 0.570312 0.0605469 2.92871 0.0605469 5.82715C0.0605469 8.71875 2.42578 11.084 5.31738 11.084ZM5.31738 9.94922C3.06152 9.94922 1.19531 8.08301 1.19531 5.82715C1.19531 3.57129 3.06152 1.70508 5.31738 1.70508C7.57324 1.70508 9.43945 3.57129 9.43945 5.82715C9.43945 8.08301 7.57324 9.94922 5.31738 9.94922Z" fill="#5C5C5C"/>
</svg>
