<svg width="28" height="27" viewBox="0 0 28 27" fill="none" xmlns="http://www.w3.org/2000/svg">
<path d="M12.8936 24.2539H15.0957C16.1055 24.2539 16.9219 23.6094 17.1475 22.6426L17.5342 20.9668L17.7061 20.9131L19.167 21.8047C20.0264 22.3311 21.0469 22.1914 21.7559 21.4717L23.2812 19.9678C24.001 19.2158 24.1191 18.2061 23.6035 17.3682L22.6904 15.9287L22.7549 15.7676L24.4199 15.3701C25.376 15.123 26.0098 14.3174 26.0098 13.3076V11.2129C26.0098 10.2031 25.3867 9.38672 24.4199 9.15039L22.7656 8.74219L22.7012 8.58105L23.6035 7.13086C24.1406 6.29297 24.001 5.29395 23.2812 4.53125L21.7666 3.02734C21.0576 2.30762 20.0371 2.16797 19.1777 2.69434L17.7168 3.58594L17.5342 3.52148L17.1475 1.8457C16.9219 0.878906 16.1055 0.234375 15.0957 0.234375H12.8936C11.8838 0.234375 11.0674 0.889648 10.8418 1.8457L10.4551 3.52148L10.2725 3.58594L8.81152 2.69434C7.95215 2.16797 6.93164 2.30762 6.22266 3.02734L4.70801 4.53125C3.98828 5.29395 3.84863 6.29297 4.38574 7.13086L5.28809 8.58105L5.22363 8.74219L3.56934 9.15039C2.60254 9.38672 1.97949 10.2031 1.97949 11.2129V13.3076C1.97949 14.3174 2.61328 15.1338 3.56934 15.3701L5.23438 15.7676L5.29883 15.9287L4.38574 17.3682C3.85938 18.2061 3.98828 19.2158 4.70801 19.9678L6.2334 21.4717C6.94238 22.1914 7.96289 22.3311 8.82227 21.8047L10.2832 20.9131L10.4551 20.9668L10.8418 22.6426C11.0674 23.6094 11.8838 24.2539 12.8936 24.2539ZM13.3555 21.751C13.1729 21.751 13.0977 21.665 13.0654 21.5146L12.4531 18.915C11.7119 18.7646 10.9814 18.4639 10.3369 18.0342L8.04883 19.4414C7.91992 19.5273 7.79102 19.5166 7.67285 19.3984L6.78125 18.5176C6.65234 18.3994 6.66309 18.2705 6.74902 18.1416L8.16699 15.8535C7.76953 15.209 7.46875 14.5 7.31836 13.7695L4.70801 13.1572C4.55762 13.1357 4.47168 13.0498 4.47168 12.8672V11.6426C4.47168 11.46 4.55762 11.3848 4.70801 11.3418L7.31836 10.7295C7.47949 9.99902 7.78027 9.25781 8.15625 8.64551L6.73828 6.36816C6.65234 6.22852 6.6416 6.09961 6.77051 5.98145L7.66211 5.10059C7.79102 4.98242 7.90918 4.97168 8.04883 5.05762L10.3262 6.4541C10.8633 6.08887 11.6904 5.74512 12.4531 5.57324L13.0654 2.97363C13.0977 2.82324 13.1729 2.7373 13.3555 2.7373H14.6338C14.8164 2.7373 14.8916 2.8125 14.9238 2.97363L15.5469 5.58398C16.3096 5.74512 17.0293 6.06738 17.6523 6.4541L19.9189 5.06836C20.0693 4.98242 20.1768 4.99316 20.3057 5.11133L21.208 5.99219C21.3262 6.12109 21.3154 6.23926 21.2295 6.37891L19.833 8.64551C20.209 9.24707 20.5205 9.98828 20.6709 10.7295L23.2812 11.3418C23.4424 11.3848 23.5176 11.46 23.5176 11.6426V12.8672C23.5176 13.0498 23.4316 13.1357 23.2812 13.1572L20.6602 13.7803C20.5205 14.5 20.2197 15.2305 19.8223 15.8535L21.2295 18.1309C21.3047 18.2598 21.3154 18.3779 21.1973 18.5068L20.3057 19.3877C20.1768 19.5166 20.0479 19.5166 19.9189 19.4307L17.6631 18.0342C16.9971 18.4639 16.3525 18.7432 15.5469 18.915L14.9238 21.5146C14.8916 21.6758 14.8164 21.751 14.6338 21.751H13.3555ZM14 16.2939C16.2129 16.2939 18.0283 14.4678 18.0283 12.2441C18.0283 10.0312 16.2129 8.22656 14 8.22656C11.7764 8.22656 9.9502 10.0312 9.9502 12.2441C9.9502 14.4678 11.7764 16.2939 14 16.2939ZM14 14.0918C12.9902 14.0918 12.1631 13.2646 12.1631 12.2441C12.1631 11.2451 12.9902 10.418 14 10.418C14.9775 10.418 15.8047 11.2559 15.8047 12.2441C15.8047 13.2539 14.9775 14.0918 14 14.0918Z" fill="black"/>
</svg>
