<svg width="20" height="20" viewBox="0 0 20 20" fill="none" xmlns="http://www.w3.org/2000/svg">
<path d="M3.97949 19.1973C4.33984 19.4785 4.79688 19.3818 5.3418 18.9863L9.99121 15.5674L14.6494 18.9863C15.1943 19.3818 15.6426 19.4785 16.0117 19.1973C16.3721 18.9248 16.4512 18.4766 16.2314 17.835L14.3945 12.3682L19.0879 8.99316C19.6328 8.60645 19.8525 8.20215 19.7119 7.7627C19.5713 7.34082 19.1582 7.12988 18.4814 7.13867L12.7246 7.17383L10.9756 1.68066C10.7646 1.03027 10.4482 0.705078 9.99121 0.705078C9.54297 0.705078 9.22656 1.03027 9.01562 1.68066L7.2666 7.17383L1.50977 7.13867C0.833008 7.12988 0.419922 7.34082 0.279297 7.7627C0.129883 8.20215 0.358398 8.60645 0.90332 8.99316L5.59668 12.3682L3.75977 17.835C3.54004 18.4766 3.61914 18.9248 3.97949 19.1973ZM5.24512 17.457C5.22754 17.4395 5.23633 17.4307 5.24512 17.3779L6.99414 12.3506C7.11719 12.0078 7.04688 11.7354 6.73926 11.5244L2.3623 8.50098C2.31836 8.47461 2.30957 8.45703 2.31836 8.43066C2.32715 8.4043 2.34473 8.4043 2.39746 8.4043L7.71484 8.50098C8.0752 8.50977 8.30371 8.36035 8.41797 8L9.94727 2.91113C9.95605 2.8584 9.97363 2.84082 9.99121 2.84082C10.0176 2.84082 10.0352 2.8584 10.0439 2.91113L11.5732 8C11.6875 8.36035 11.916 8.50977 12.2764 8.50098L17.5938 8.4043C17.6465 8.4043 17.6641 8.4043 17.6729 8.43066C17.6816 8.45703 17.6641 8.47461 17.6289 8.50098L13.252 11.5244C12.9443 11.7354 12.874 12.0078 12.9971 12.3506L14.7461 17.3779C14.7549 17.4307 14.7637 17.4395 14.7461 17.457C14.7285 17.4834 14.7021 17.4658 14.667 17.4395L10.4395 14.2139C10.1582 13.9941 9.83301 13.9941 9.55176 14.2139L5.32422 17.4395C5.28906 17.4658 5.2627 17.4834 5.24512 17.457Z" fill="#F6BD60"/>
</svg>
