<svg width="18" height="19" viewBox="0 0 18 19" fill="none" xmlns="http://www.w3.org/2000/svg">
<path d="M9 18.9004C13.9043 18.9004 17.9648 14.8398 17.9648 9.93555C17.9648 5.04004 13.9131 0.970703 9.00879 0.970703C8.54297 0.970703 8.31445 1.25195 8.31445 1.70898V5.11914C8.31445 5.49707 8.57812 5.80469 8.95605 5.80469C9.34277 5.80469 9.60645 5.49707 9.60645 5.11914V2.49121C13.4736 2.79883 16.4619 5.99805 16.4619 9.93555C16.4619 14.084 13.1484 17.4062 9 17.4062C4.85156 17.4062 1.52051 14.084 1.5293 9.93555C1.53809 8.08984 2.19727 6.41113 3.30469 5.11035C3.56836 4.77637 3.58594 4.36328 3.2959 4.04688C3.00586 3.73926 2.52246 3.76562 2.19727 4.16113C0.861328 5.72559 0.0351562 7.74707 0.0351562 9.93555C0.0351562 14.8398 4.10449 18.9004 9 18.9004ZM10.4062 11.2012C11.0918 10.4805 10.9512 9.49609 10.1162 8.91602L5.4668 5.67285C5.03613 5.36523 4.5791 5.82227 4.88672 6.26172L8.12988 10.9111C8.70996 11.7461 9.68555 11.8955 10.4062 11.2012Z" fill="black"/>
</svg>
