<svg width="28" height="25" viewBox="0 0 28 25" fill="none" xmlns="http://www.w3.org/2000/svg">
<path d="M8.88889 9.88086C11.0959 9.88086 12.8928 7.94727 12.8928 5.48633C12.8928 3.11328 11.0862 1.19922 8.88889 1.19922C6.69162 1.19922 4.87522 3.13281 4.88498 5.49609C4.89475 7.94727 6.68186 9.88086 8.88889 9.88086ZM2.88303 19.041H14.885C16.6233 19.041 17.1994 18.4648 17.1994 17.4883C17.1994 14.9883 13.9475 11.5801 8.88889 11.5801C3.82053 11.5801 0.568577 14.9883 0.568577 17.4883C0.568577 18.4648 1.14475 19.041 2.88303 19.041Z" fill="currentColor"/>
<path d="M18.8889 15.0166C20.4338 15.0166 21.6916 13.6631 21.6916 11.9404C21.6916 10.2793 20.427 8.93945 18.8889 8.93945C17.3508 8.93945 16.0793 10.293 16.0862 11.9473C16.093 13.6631 17.344 15.0166 18.8889 15.0166ZM14.6848 21.4287H23.0862C24.303 21.4287 24.7063 21.0254 24.7063 20.3418C24.7063 18.5918 22.4299 16.2061 18.8889 16.2061C15.341 16.2061 13.0647 18.5918 13.0647 20.3418C13.0647 21.0254 13.468 21.4287 14.6848 21.4287Z" fill="currentColor"/>
</svg>
