<svg width="21" height="24" viewBox="0 0 21 24" fill="none" xmlns="http://www.w3.org/2000/svg">
<path d="M5.91016 23.0176H15.0898C16.6621 23.0176 17.5215 22.2266 17.5898 20.6934L18.2051 6.85547H19.3477C20.002 6.85547 20.4805 6.38672 20.4805 5.74219C20.4805 5.10742 20.002 4.64844 19.3477 4.64844H15.3242V3.24219C15.3242 1.5332 14.2598 0.566406 12.3555 0.566406H8.63477C6.73047 0.566406 5.65625 1.5332 5.65625 3.24219V4.64844H1.64258C0.998047 4.64844 0.509766 5.10742 0.509766 5.74219C0.509766 6.39648 0.998047 6.85547 1.64258 6.85547H2.79492L3.41016 20.6934C3.46875 22.2266 4.33789 23.0176 5.91016 23.0176ZM8.16602 3.31055C8.16602 2.95898 8.40039 2.75391 8.80078 2.75391H12.1797C12.5898 2.75391 12.8242 2.95898 12.8242 3.31055V4.64844H8.16602V3.31055ZM7.29688 19.6582C6.83789 19.6582 6.51562 19.3457 6.50586 18.8867L6.21289 8.97461C6.20312 8.50586 6.50586 8.19336 6.98438 8.19336C7.46289 8.19336 7.78516 8.50586 7.79492 8.96484L8.08789 18.8672C8.09766 19.3359 7.79492 19.6582 7.29688 19.6582ZM10.5 19.6582C10.0215 19.6582 9.69922 19.3555 9.69922 18.8867V8.96484C9.69922 8.50586 10.0215 8.19336 10.5 8.19336C10.9688 8.19336 11.291 8.50586 11.291 8.96484V18.8867C11.291 19.3555 10.9688 19.6582 10.5 19.6582ZM13.6934 19.6582C13.2051 19.6582 12.8926 19.3359 12.9023 18.877L13.1953 8.96484C13.2051 8.50586 13.5273 8.20312 14.0059 8.20312C14.4844 8.20312 14.7969 8.50586 14.7773 8.97461L14.4941 18.8867C14.4844 19.3457 14.1523 19.6582 13.6934 19.6582Z" fill="currentColor"/>
</svg>
